<?xml version="1.0" encoding="utf-8"?>
<!-- Generator: Adobe Illustrator 24.0.3, SVG Export Plug-In . SVG Version: 6.00 Build 0)  -->
<svg version="1.1" id="Layer_1" xmlns="http://www.w3.org/2000/svg" xmlns:xlink="http://www.w3.org/1999/xlink" x="0px" y="0px"
	 viewBox="0 0 640 640" style="enable-background:new 0 0 640 640;" xml:space="preserve">
<style type="text/css">
	.st0{fill:#555555;stroke:#555555;stroke-miterlimit:10;}
</style>
<rect x="0.28" y="0.13" class="st0" width="5.81" height="5.74"/>
<rect x="64.37" y="0.13" class="st0" width="5.81" height="5.74"/>
<rect x="128.46" y="0.13" class="st0" width="5.81" height="5.74"/>
<rect x="192.55" y="0.13" class="st0" width="5.81" height="5.74"/>
<rect x="256.65" y="0.13" class="st0" width="5.81" height="5.74"/>
<rect x="320.74" y="0.13" class="st0" width="5.81" height="5.74"/>
<rect x="384.83" y="0.13" class="st0" width="5.81" height="5.74"/>
<rect x="448.92" y="0.13" class="st0" width="5.81" height="5.74"/>
<rect x="513.01" y="0.13" class="st0" width="5.81" height="5.74"/>
<rect x="577.1" y="0.13" class="st0" width="5.81" height="5.74"/>
<rect x="0.28" y="60.13" class="st0" width="5.81" height="5.74"/>
<rect x="64.37" y="60.13" class="st0" width="5.81" height="5.74"/>
<rect x="128.46" y="60.13" class="st0" width="5.81" height="5.74"/>
<rect x="192.55" y="60.13" class="st0" width="5.81" height="5.74"/>
<rect x="256.65" y="60.13" class="st0" width="5.81" height="5.74"/>
<rect x="320.74" y="60.13" class="st0" width="5.81" height="5.74"/>
<rect x="384.83" y="60.13" class="st0" width="5.81" height="5.74"/>
<rect x="448.92" y="60.13" class="st0" width="5.81" height="5.74"/>
<rect x="513.01" y="60.13" class="st0" width="5.81" height="5.74"/>
<rect x="577.1" y="60.13" class="st0" width="5.81" height="5.74"/>
<rect x="0.28" y="60.13" class="st0" width="5.81" height="5.74"/>
<rect x="64.37" y="60.13" class="st0" width="5.81" height="5.74"/>
<rect x="128.46" y="60.13" class="st0" width="5.81" height="5.74"/>
<rect x="192.55" y="60.13" class="st0" width="5.81" height="5.74"/>
<rect x="256.65" y="60.13" class="st0" width="5.81" height="5.74"/>
<rect x="320.74" y="60.13" class="st0" width="5.81" height="5.74"/>
<rect x="384.83" y="60.13" class="st0" width="5.81" height="5.74"/>
<rect x="448.92" y="60.13" class="st0" width="5.81" height="5.74"/>
<rect x="513.01" y="60.13" class="st0" width="5.81" height="5.74"/>
<rect x="577.1" y="60.13" class="st0" width="5.81" height="5.74"/>
<rect x="0.28" y="120.13" class="st0" width="5.81" height="5.74"/>
<rect x="64.37" y="120.13" class="st0" width="5.81" height="5.74"/>
<rect x="128.46" y="120.13" class="st0" width="5.81" height="5.74"/>
<rect x="192.55" y="120.13" class="st0" width="5.81" height="5.74"/>
<rect x="256.65" y="120.13" class="st0" width="5.81" height="5.74"/>
<rect x="320.74" y="120.13" class="st0" width="5.81" height="5.74"/>
<rect x="384.83" y="120.13" class="st0" width="5.81" height="5.74"/>
<rect x="448.92" y="120.13" class="st0" width="5.81" height="5.74"/>
<rect x="513.01" y="120.13" class="st0" width="5.81" height="5.74"/>
<rect x="577.1" y="120.13" class="st0" width="5.81" height="5.74"/>
<rect x="0.28" y="120.13" class="st0" width="5.81" height="5.74"/>
<rect x="64.37" y="120.13" class="st0" width="5.81" height="5.74"/>
<rect x="128.46" y="120.13" class="st0" width="5.81" height="5.74"/>
<rect x="192.55" y="120.13" class="st0" width="5.81" height="5.74"/>
<rect x="256.65" y="120.13" class="st0" width="5.81" height="5.74"/>
<rect x="320.74" y="120.13" class="st0" width="5.81" height="5.74"/>
<rect x="384.83" y="120.13" class="st0" width="5.81" height="5.74"/>
<rect x="448.92" y="120.13" class="st0" width="5.81" height="5.74"/>
<rect x="513.01" y="120.13" class="st0" width="5.81" height="5.74"/>
<rect x="577.1" y="120.13" class="st0" width="5.81" height="5.74"/>
<rect x="0.28" y="180.13" class="st0" width="5.81" height="5.74"/>
<rect x="64.37" y="180.13" class="st0" width="5.81" height="5.74"/>
<rect x="128.46" y="180.13" class="st0" width="5.81" height="5.74"/>
<rect x="192.55" y="180.13" class="st0" width="5.81" height="5.74"/>
<rect x="256.65" y="180.13" class="st0" width="5.81" height="5.74"/>
<rect x="320.74" y="180.13" class="st0" width="5.81" height="5.74"/>
<rect x="384.83" y="180.13" class="st0" width="5.81" height="5.74"/>
<rect x="448.92" y="180.13" class="st0" width="5.81" height="5.74"/>
<rect x="513.01" y="180.13" class="st0" width="5.81" height="5.74"/>
<rect x="577.1" y="180.13" class="st0" width="5.81" height="5.74"/>
<rect x="0.28" y="180.13" class="st0" width="5.81" height="5.74"/>
<rect x="64.37" y="180.13" class="st0" width="5.81" height="5.74"/>
<rect x="128.46" y="180.13" class="st0" width="5.81" height="5.74"/>
<rect x="192.55" y="180.13" class="st0" width="5.81" height="5.74"/>
<rect x="256.65" y="180.13" class="st0" width="5.81" height="5.74"/>
<rect x="320.74" y="180.13" class="st0" width="5.81" height="5.74"/>
<rect x="384.83" y="180.13" class="st0" width="5.81" height="5.74"/>
<rect x="448.92" y="180.13" class="st0" width="5.81" height="5.74"/>
<rect x="513.01" y="180.13" class="st0" width="5.81" height="5.74"/>
<rect x="577.1" y="180.13" class="st0" width="5.81" height="5.74"/>
<rect x="0.28" y="240.13" class="st0" width="5.81" height="5.74"/>
<rect x="64.37" y="240.13" class="st0" width="5.81" height="5.74"/>
<rect x="128.46" y="240.13" class="st0" width="5.81" height="5.74"/>
<rect x="192.55" y="240.13" class="st0" width="5.81" height="5.74"/>
<rect x="256.65" y="240.13" class="st0" width="5.81" height="5.74"/>
<rect x="320.74" y="240.13" class="st0" width="5.81" height="5.74"/>
<rect x="384.83" y="240.13" class="st0" width="5.81" height="5.74"/>
<rect x="448.92" y="240.13" class="st0" width="5.81" height="5.74"/>
<rect x="513.01" y="240.13" class="st0" width="5.81" height="5.74"/>
<rect x="577.1" y="240.13" class="st0" width="5.81" height="5.74"/>
<rect x="0.28" y="240.13" class="st0" width="5.81" height="5.74"/>
<rect x="64.37" y="240.13" class="st0" width="5.81" height="5.74"/>
<rect x="128.46" y="240.13" class="st0" width="5.81" height="5.74"/>
<rect x="192.55" y="240.13" class="st0" width="5.81" height="5.74"/>
<rect x="256.65" y="240.13" class="st0" width="5.81" height="5.74"/>
<rect x="320.74" y="240.13" class="st0" width="5.81" height="5.74"/>
<rect x="384.83" y="240.13" class="st0" width="5.81" height="5.74"/>
<rect x="448.92" y="240.13" class="st0" width="5.81" height="5.74"/>
<rect x="513.01" y="240.13" class="st0" width="5.81" height="5.74"/>
<rect x="577.1" y="240.13" class="st0" width="5.81" height="5.74"/>
<rect x="0.28" y="300.13" class="st0" width="5.81" height="5.74"/>
<rect x="64.37" y="300.13" class="st0" width="5.81" height="5.74"/>
<rect x="128.46" y="300.13" class="st0" width="5.81" height="5.74"/>
<rect x="192.55" y="300.13" class="st0" width="5.81" height="5.74"/>
<rect x="256.65" y="300.13" class="st0" width="5.81" height="5.74"/>
<rect x="320.74" y="300.13" class="st0" width="5.81" height="5.74"/>
<rect x="384.83" y="300.13" class="st0" width="5.81" height="5.74"/>
<rect x="448.92" y="300.13" class="st0" width="5.81" height="5.74"/>
<rect x="513.01" y="300.13" class="st0" width="5.81" height="5.74"/>
<rect x="577.1" y="300.13" class="st0" width="5.81" height="5.74"/>
<rect x="0.28" y="300.13" class="st0" width="5.81" height="5.74"/>
<rect x="64.37" y="300.13" class="st0" width="5.81" height="5.74"/>
<rect x="128.46" y="300.13" class="st0" width="5.81" height="5.74"/>
<rect x="192.55" y="300.13" class="st0" width="5.81" height="5.74"/>
<rect x="256.65" y="300.13" class="st0" width="5.81" height="5.74"/>
<rect x="320.74" y="300.13" class="st0" width="5.81" height="5.74"/>
<rect x="384.83" y="300.13" class="st0" width="5.81" height="5.74"/>
<rect x="448.92" y="300.13" class="st0" width="5.81" height="5.74"/>
<rect x="513.01" y="300.13" class="st0" width="5.81" height="5.74"/>
<rect x="577.1" y="300.13" class="st0" width="5.81" height="5.74"/>
<rect x="0.28" y="360.13" class="st0" width="5.81" height="5.74"/>
<rect x="64.37" y="360.13" class="st0" width="5.81" height="5.74"/>
<rect x="128.46" y="360.13" class="st0" width="5.81" height="5.74"/>
<rect x="192.55" y="360.13" class="st0" width="5.81" height="5.74"/>
<rect x="256.65" y="360.13" class="st0" width="5.81" height="5.74"/>
<rect x="320.74" y="360.13" class="st0" width="5.81" height="5.74"/>
<rect x="384.83" y="360.13" class="st0" width="5.81" height="5.74"/>
<rect x="448.92" y="360.13" class="st0" width="5.81" height="5.74"/>
<rect x="513.01" y="360.13" class="st0" width="5.81" height="5.74"/>
<rect x="577.1" y="360.13" class="st0" width="5.81" height="5.74"/>
<rect x="0.28" y="360.13" class="st0" width="5.81" height="5.74"/>
<rect x="64.37" y="360.13" class="st0" width="5.81" height="5.74"/>
<rect x="128.46" y="360.13" class="st0" width="5.81" height="5.74"/>
<rect x="192.55" y="360.13" class="st0" width="5.81" height="5.74"/>
<rect x="256.65" y="360.13" class="st0" width="5.81" height="5.74"/>
<rect x="320.74" y="360.13" class="st0" width="5.81" height="5.74"/>
<rect x="384.83" y="360.13" class="st0" width="5.81" height="5.74"/>
<rect x="448.92" y="360.13" class="st0" width="5.81" height="5.74"/>
<rect x="513.01" y="360.13" class="st0" width="5.81" height="5.74"/>
<rect x="577.1" y="360.13" class="st0" width="5.81" height="5.74"/>
<rect x="0.28" y="420.13" class="st0" width="5.81" height="5.74"/>
<rect x="64.37" y="420.13" class="st0" width="5.81" height="5.74"/>
<rect x="128.46" y="420.13" class="st0" width="5.81" height="5.74"/>
<rect x="192.55" y="420.13" class="st0" width="5.81" height="5.74"/>
<rect x="256.65" y="420.13" class="st0" width="5.81" height="5.74"/>
<rect x="320.74" y="420.13" class="st0" width="5.81" height="5.74"/>
<rect x="384.83" y="420.13" class="st0" width="5.81" height="5.74"/>
<rect x="448.92" y="420.13" class="st0" width="5.81" height="5.74"/>
<rect x="513.01" y="420.13" class="st0" width="5.81" height="5.74"/>
<rect x="577.1" y="420.13" class="st0" width="5.81" height="5.74"/>
<rect x="0.28" y="420.13" class="st0" width="5.81" height="5.74"/>
<rect x="64.37" y="420.13" class="st0" width="5.81" height="5.74"/>
<rect x="128.46" y="420.13" class="st0" width="5.81" height="5.74"/>
<rect x="192.55" y="420.13" class="st0" width="5.81" height="5.74"/>
<rect x="256.65" y="420.13" class="st0" width="5.81" height="5.74"/>
<rect x="320.74" y="420.13" class="st0" width="5.81" height="5.74"/>
<rect x="384.83" y="420.13" class="st0" width="5.81" height="5.74"/>
<rect x="448.92" y="420.13" class="st0" width="5.81" height="5.74"/>
<rect x="513.01" y="420.13" class="st0" width="5.81" height="5.74"/>
<rect x="577.1" y="420.13" class="st0" width="5.81" height="5.74"/>
<rect x="0.28" y="480.13" class="st0" width="5.81" height="5.74"/>
<rect x="64.37" y="480.13" class="st0" width="5.81" height="5.74"/>
<rect x="128.46" y="480.13" class="st0" width="5.81" height="5.74"/>
<rect x="192.55" y="480.13" class="st0" width="5.81" height="5.74"/>
<rect x="256.65" y="480.13" class="st0" width="5.81" height="5.74"/>
<rect x="320.74" y="480.13" class="st0" width="5.81" height="5.74"/>
<rect x="384.83" y="480.13" class="st0" width="5.81" height="5.74"/>
<rect x="448.92" y="480.13" class="st0" width="5.81" height="5.74"/>
<rect x="513.01" y="480.13" class="st0" width="5.81" height="5.74"/>
<rect x="577.1" y="480.13" class="st0" width="5.81" height="5.74"/>
<rect x="0.28" y="480.13" class="st0" width="5.81" height="5.74"/>
<rect x="64.37" y="480.13" class="st0" width="5.81" height="5.74"/>
<rect x="128.46" y="480.13" class="st0" width="5.81" height="5.74"/>
<rect x="192.55" y="480.13" class="st0" width="5.81" height="5.74"/>
<rect x="256.65" y="480.13" class="st0" width="5.81" height="5.74"/>
<rect x="320.74" y="480.13" class="st0" width="5.81" height="5.74"/>
<rect x="384.83" y="480.13" class="st0" width="5.81" height="5.74"/>
<rect x="448.92" y="480.13" class="st0" width="5.81" height="5.74"/>
<rect x="513.01" y="480.13" class="st0" width="5.81" height="5.74"/>
<rect x="577.1" y="480.13" class="st0" width="5.81" height="5.74"/>
<rect x="0.28" y="540.13" class="st0" width="5.81" height="5.74"/>
<rect x="64.37" y="540.13" class="st0" width="5.81" height="5.74"/>
<rect x="128.46" y="540.13" class="st0" width="5.81" height="5.74"/>
<rect x="192.55" y="540.13" class="st0" width="5.81" height="5.74"/>
<rect x="256.65" y="540.13" class="st0" width="5.81" height="5.74"/>
<rect x="320.74" y="540.13" class="st0" width="5.81" height="5.74"/>
<rect x="384.83" y="540.13" class="st0" width="5.81" height="5.74"/>
<rect x="448.92" y="540.13" class="st0" width="5.81" height="5.74"/>
<rect x="513.01" y="540.13" class="st0" width="5.81" height="5.74"/>
<rect x="577.1" y="540.13" class="st0" width="5.81" height="5.74"/>
<rect x="0.28" y="540.13" class="st0" width="5.81" height="5.74"/>
<rect x="64.37" y="540.13" class="st0" width="5.81" height="5.74"/>
<rect x="128.46" y="540.13" class="st0" width="5.81" height="5.74"/>
<rect x="192.55" y="540.13" class="st0" width="5.81" height="5.74"/>
<rect x="256.65" y="540.13" class="st0" width="5.81" height="5.74"/>
<rect x="320.74" y="540.13" class="st0" width="5.81" height="5.74"/>
<rect x="384.83" y="540.13" class="st0" width="5.81" height="5.74"/>
<rect x="448.92" y="540.13" class="st0" width="5.81" height="5.74"/>
<rect x="513.01" y="540.13" class="st0" width="5.81" height="5.74"/>
<rect x="577.1" y="540.13" class="st0" width="5.81" height="5.74"/>
<rect x="0.28" y="600.13" class="st0" width="5.81" height="5.74"/>
<rect x="64.37" y="600.13" class="st0" width="5.81" height="5.74"/>
<rect x="128.46" y="600.13" class="st0" width="5.81" height="5.74"/>
<rect x="192.55" y="600.13" class="st0" width="5.81" height="5.74"/>
<rect x="256.65" y="600.13" class="st0" width="5.81" height="5.74"/>
<rect x="320.74" y="600.13" class="st0" width="5.81" height="5.74"/>
<rect x="384.83" y="600.13" class="st0" width="5.81" height="5.74"/>
<rect x="448.92" y="600.13" class="st0" width="5.81" height="5.74"/>
<rect x="513.01" y="600.13" class="st0" width="5.81" height="5.74"/>
<rect x="577.1" y="600.13" class="st0" width="5.81" height="5.74"/>
<rect x="0.28" y="600.13" class="st0" width="5.81" height="5.74"/>
<rect x="64.37" y="600.13" class="st0" width="5.81" height="5.74"/>
<rect x="128.46" y="600.13" class="st0" width="5.81" height="5.74"/>
<rect x="192.55" y="600.13" class="st0" width="5.81" height="5.74"/>
<rect x="256.65" y="600.13" class="st0" width="5.81" height="5.74"/>
<rect x="320.74" y="600.13" class="st0" width="5.81" height="5.74"/>
<rect x="384.83" y="600.13" class="st0" width="5.81" height="5.74"/>
<rect x="448.92" y="600.13" class="st0" width="5.81" height="5.74"/>
<rect x="513.01" y="600.13" class="st0" width="5.81" height="5.74"/>
<rect x="577.1" y="600.13" class="st0" width="5.81" height="5.74"/>
</svg>
